<?xml version="1.0" encoding="UTF-8" standalone="no"?>
<!DOCTYPE svg PUBLIC "-//W3C//DTD SVG 1.1//EN" "http://www.w3.org/Graphics/SVG/1.1/DTD/svg11.dtd">
<!-- Created with Vectornator (http://vectornator.io/) -->
<svg height="100%" stroke-miterlimit="10" style="fill-rule:nonzero;clip-rule:evenodd;stroke-linecap:round;stroke-linejoin:round;" version="1.1" viewBox="0 0 32 32" width="100%" xml:space="preserve" xmlns="http://www.w3.org/2000/svg" xmlns:vectornator="http://vectornator.io" xmlns:xlink="http://www.w3.org/1999/xlink">
<defs/>
<g id="Untitled" vectornator:layerName="Untitled">
<g opacity="1">
<path d="M11.0146 16.081C11.0146 14.7227 11.4426 13.526 12.3947 12.5477C13.4909 11.4253 14.526 10.2243 15.7358 9.24162C17.2076 8.04932 18.3999 6.59497 19.7975 5.34153C21.3741 3.92649 23.1778 3.63825 25.0995 4.42438C27.0386 5.21488 27.9776 6.80024 28.0649 8.83981C28.1173 10.102 27.7112 11.3074 26.7765 12.1983C24.6889 14.1986 24.523 17.5178 26.7591 19.8238C28.2353 21.348 28.4798 23.2391 27.5889 25.1782C26.6936 27.1305 25.0645 28.0302 22.9507 28.0039C21.7759 27.9908 20.7277 27.5323 19.8499 26.733C19.6009 26.5059 19.3694 26.2614 19.1292 26.0299C16.9324 23.8986 14.7313 21.7717 12.5432 19.6273C11.5212 18.6184 11.0452 17.4523 11.0146 16.081Z" fill="#42d392" fill-rule="nonzero" opacity="1" stroke="none"/>
<path d="M20.9854 16.081C20.9854 14.7227 20.5574 13.526 19.6053 12.5477C18.5091 11.4253 17.474 10.2243 16.2642 9.24162C14.7924 8.04932 13.6001 6.59497 12.2025 5.34153C10.6259 3.92649 8.82218 3.63825 6.90053 4.42438C4.96141 5.21488 4.02242 6.80024 3.93507 8.83981C3.88266 10.102 4.28883 11.3074 5.22345 12.1983C7.31107 14.1986 7.47703 17.5178 5.24092 19.8238C3.76474 21.348 3.52017 23.2391 4.41111 25.1782C5.30643 27.1305 6.93547 28.0302 9.04929 28.0039C10.2241 27.9908 11.2723 27.5323 12.1501 26.733C12.3991 26.5059 12.6306 26.2614 12.8708 26.0299C15.0676 23.8986 17.2687 21.7717 19.4568 19.6273C20.4788 18.6184 20.9548 17.4523 20.9854 16.081Z" fill="#42d392" fill-rule="nonzero" opacity="1" stroke="none"/>
<path d="M12.3947 12.5434C11.4426 13.5217 11.0146 14.7183 11.0146 16.0766C11.0452 17.448 11.5212 18.614 12.5476 19.6185C13.6962 20.7453 14.8492 21.8678 16.0022 22.9858C17.1552 21.8678 18.3082 20.7453 19.4568 19.6185C20.4788 18.614 20.9592 17.448 20.9897 16.0766C20.9897 14.7183 20.5617 13.5217 19.6097 12.5434C18.5134 11.4209 17.4784 10.2199 16.2686 9.23725C16.1769 9.163 16.0939 9.08876 16.0066 9.01451C15.9192 9.08876 15.8319 9.16737 15.7445 9.23725C14.526 10.2243 13.4909 11.4209 12.3947 12.5434Z" fill="#35495e" fill-rule="nonzero" opacity="1" stroke="none"/>
</g>
</g>
</svg>
